<?xml version="1.0" encoding="utf-8"?>
<!-- Generator: Adobe Illustrator 16.0.0, SVG Export Plug-In . SVG Version: 6.00 Build 0)  -->
<!DOCTYPE svg PUBLIC "-//W3C//DTD SVG 1.1//EN" "http://www.w3.org/Graphics/SVG/1.1/DTD/svg11.dtd">
<svg version="1.1" id="Layer_1" xmlns="http://www.w3.org/2000/svg" xmlns:xlink="http://www.w3.org/1999/xlink" x="0px" y="0px"
	 width="392.667px" height="62px" viewBox="0 0 392.667 62" enable-background="new 0 0 392.667 62" xml:space="preserve">
<g>
	<g>
		<path fill="#FFFFFF" d="M32.925,41.084c0,0.23-0.373,0.409-0.841,0.409c-0.461,0-0.839-0.179-0.839-0.409
			c0-0.227,0.377-0.406,0.839-0.406C32.552,40.678,32.925,40.857,32.925,41.084z"/>
		<path fill="#FFFFFF" d="M17.068,41.084c0,0.23-0.374,0.409-0.84,0.409c-0.464,0-0.841-0.179-0.841-0.409
			c0-0.227,0.377-0.406,0.841-0.406C16.695,40.678,17.068,40.857,17.068,41.084z"/>
		<path fill="#FFFFFF" d="M5.796,89.987c-0.248-0.238-0.555-0.375-0.909-0.375c-0.123,0-0.257,0.016-0.389,0.057
			c-11.655,3.066-21.19,4.9-30.013,5.74c-3.505,0.332-6.364,0.488-8.992,0.488c-5.966,0-10.924-0.826-15.172-2.514
			c-4.478-1.779-8.839-5.609-7.659-11.061c1.132-5.188,4.806-9.703,8.464-13.896c1.975-2.246,4.139-4.484,6.618-6.833
			c0.485,0.226,1.021,0.347,1.593,0.347c2.123,0,3.84-1.715,3.84-3.838c0-0.428-0.089-0.84-0.22-1.229
			c0.128-0.109,0.248-0.226,0.38-0.338c1.661-1.429,4.307-3.632,6.284-5.122c0.413-0.31,0.679-0.814,0.69-1.266
			c0.012-0.368-0.125-0.684-0.419-0.939c-6.73-5.598-12.819-11.852-18.09-18.583c-4.521-5.771-9.637-13.973-8.282-20.289
			c0.564-2.634,2.251-4.707,5.021-6.164c3.747-1.975,8.403-2.252,12.564-2.255c4.225,0,8.82,0.462,14.457,1.458
			c6.181,1.093,11.962,2.499,17.175,4.18c0.153,0.052,0.304,0.077,0.447,0.077c0.545,0,1.002-0.362,1.197-0.945
			c0.064-0.183,0.172-0.677-0.077-1.157c-0.165-0.319-0.44-0.551-0.817-0.675c-8.02-2.58-16.418-4.365-24.965-5.303
			c-2.819-0.305-5.463-0.457-7.858-0.457c-11.297,0-17.964,3.423-19.804,10.178c-1.298,4.751,0.697,9.749,2.31,13.076
			c2.501,5.18,6.108,9.737,9.303,13.515c4.44,5.208,9.222,10.021,14.22,14.299c-0.197,0.188-0.811,0.715-1.794,1.56
			c-0.963,0.838-2.209,1.899-3.592,3.107c-0.58-0.343-1.244-0.563-1.971-0.563c-2.123,0-3.837,1.72-3.837,3.835
			c0,0.584,0.136,1.127,0.365,1.615c-2.378,2.211-4.711,4.482-6.472,6.463c-3.459,3.879-7.244,8.582-9.062,14.074
			c-1.614,4.865-0.321,9.242,3.748,12.648c6.158,5.15,14.974,5.748,21.078,5.748c1.47,0,2.923-0.043,4.35-0.105
			c12.849-0.525,25.277-3.422,35.747-6.178c0.478-0.133,0.817-0.453,0.938-0.91C6.329,90.954,6.174,90.37,5.796,89.987z"/>
		<path fill="#FFFFFF" d="M103.106,72.099c-5.147-7.326-12.346-14.508-22.025-21.95l0.243-0.232
			c7.588-7.17,13.503-13.33,16.627-17.317c10.065-12.85,12.049-22.455,5.89-28.569c-3.451-3.428-8.754-4.324-12.428-4.702
			c-1.481-0.146-3.06-0.224-4.689-0.224c-4.214,0-8.227,0.489-11.585,0.975C67.898,1.123,60.88,2.73,54.277,4.856
			c-0.457,0.145-0.783,0.47-0.912,0.894c-0.085,0.298-0.085,0.631,0.018,0.938c0.188,0.579,0.647,0.938,1.199,0.938
			c0.144,0,0.288-0.018,0.447-0.066c8.289-2.673,16.692-4.446,24.99-5.279c2.482-0.249,4.807-0.38,6.927-0.38
			c7.008,0,12.004,1.363,14.846,4.045c1.913,1.812,2.819,4.254,2.68,7.255c-0.187,4.215-2.419,8.339-4.577,11.824
			c-2.258,3.647-5.069,7.247-9.085,11.688c-4.307,4.728-8.658,8.934-12.954,12.51c-0.268,0.233-0.412,0.555-0.407,0.917
			c0.012,0.461,0.284,0.955,0.691,1.271c6.676,5.018,13.51,11.327,18.743,17.298c3.63,4.143,7.149,8.699,8.278,13.877
			c1.434,6.613-5.828,10.057-8.088,10.949c-3.991,1.586-8.75,2.354-14.54,2.354c-2.67,0-5.527-0.146-9.255-0.479
			c-1.94-0.178-3.861-0.422-5.761-0.68c-0.358-1.633-1.807-2.854-3.539-2.854c-1.329,0-2.488,0.727-3.11,1.797
			c-6.519-1.18-12.567-2.682-17.605-4.012c-0.132-0.033-0.261-0.049-0.392-0.049c-0.347,0-0.649,0.127-0.907,0.375
			c-0.369,0.373-0.525,0.955-0.392,1.463c0.116,0.459,0.455,0.779,0.952,0.918c6.52,1.717,12.409,3.041,17.956,4.035
			c0.405,1.57,1.809,2.725,3.499,2.725c1.284,0,2.407-0.666,3.049-1.674c1.71,0.24,3.413,0.457,5.092,0.635
			c2.419,0.258,6.092,0.592,10.006,0.592c5.584,0,10.351-0.67,14.559-2.043c2.451-0.803,10.524-3.959,11.389-10.902
			C108.686,80.774,105.738,75.839,103.106,72.099z"/>
		<path fill="#FFFFFF" d="M50.061,3.995l-0.002-0.066c-1.502-7.732-3.795-15.473-6.813-22.987c-0.629-1.571-1.314-3.174-2.045-4.767
			c0.646-0.685,1.054-1.61,1.054-2.624c0-2.119-1.719-3.836-3.841-3.836c-0.198,0-0.397,0.027-0.592,0.061
			c-3.536-5.723-8.108-10.126-14.235-10.126c-0.167,0-0.347,0.002-0.518,0.01c-3.946,0.161-7.736,2.48-11.269,6.91
			c-3.764,4.708-6.217,10.255-8.13,15.053C0.804-11.17-1.392-3.663-2.865,3.929C-2.943,4.318-2.87,4.691-2.659,5.003
			c0.226,0.328,0.595,0.565,1,0.651c0.088,0.014,0.193,0.021,0.302,0.021c0.624,0,1.082-0.386,1.198-1.013
			C1.338-3.069,3.622-10.79,6.637-18.296c1.907-4.767,7.716-19.264,16.82-19.264c1,0,2.022,0.171,3.052,0.521
			c3.884,1.302,6.749,5.102,8.822,8.335c-0.47,0.633-0.752,1.408-0.752,2.255c0,2.114,1.719,3.835,3.834,3.835l0.256-0.021
			c1.146,2.436,2.267,5.166,3.421,8.385c2.31,6.445,4.087,12.803,5.268,18.909c0.109,0.63,0.576,1.016,1.19,1.016
			c0.108,0,0.213-0.007,0.296-0.021c0.598-0.124,1.24-0.617,1.24-1.428L50.061,3.995z"/>
		<path fill="#FFFFFF" d="M86.923,26.249c-0.156-0.461-0.475-0.756-0.973-0.935l-8.714-3.031c-3.865-1.345-7.597-3.031-11.201-4.673
			l-2.501-1.129l-1.771-0.783c-3.107-1.408-6.33-2.854-9.541-4.146l-0.483-0.192c-3.461-1.399-7.039-2.831-10.788-2.792
			c-2.16,0.024-4.378,0.957-5.946,2.503c-1.433,1.417-2.164,3.647-2.164,6.646l0.016,0.64c0.032,1.036,0.052,1.719-0.963,2.854
			c-1.043,1.157-2.318,1.981-3.577,2.317l-0.696,0.179l0.055-4.225l0.01-1.623l-0.019-0.153l-0.047-0.388l0.279-0.189
			c1.975-1.314,3.181-3.443,3.224-5.707c0.079-3.957-3.254-7.239-7.43-7.326c-4.17-0.078-7.63,3.068-7.72,7.022v0.133
			c0,1.79,0.707,3.506,1.977,4.828c0.553,0.578,1.209,1.066,1.953,1.455l0.288,0.147l0.116,6.106l-1.206-0.135
			c-1.947-0.132-3.746-2.044-4.704-3.654l-0.206-0.35l0.04-0.202c0.1-0.583,0.146-1.073,0.146-1.548
			c0-0.427-0.026-0.868-0.083-1.359l-0.041-0.591c-0.025-0.575-0.062-1.22-0.307-1.882l-0.071-0.168l-0.074-0.226
			c-0.107-0.369-0.255-0.843-0.617-1.324C8.39,6.048,0.163,9.522-5.302,11.854v0.071l-0.197,0.009
			C-5.605,11.987-6.6,12.408-6.6,12.408c-2.66,1.125-5.322,2.364-7.899,3.562c-2.551,1.188-5.19,2.417-7.826,3.527
			c-4.132,1.758-8.452,3.236-12.631,4.666l-3.727,1.283c-0.754,0.267-1.059,1.051-1.059,1.774c0,0.231,0.035,0.459,0.095,0.653
			c0.381,1.281,1.277,2.401,2.339,2.907c0.712,0.35,1.552,0.577,2.139,0.577h0.031h0.031c0.465,0.053,0.7,0.526,1.03,1.298
			l0.098,0.209c0.302,0.554,0.602,0.916,0.963,1.168c1.295,0.867,2.962,0.994,4.847,1.063l1.767,0.01l0.252-0.016
			c0.469-0.039,1.111-0.086,1.543,0.294c0.272,0.235,0.341,0.577,0.392,0.833l0.05,0.186c0.082,0.227,0.211,0.422,0.409,0.647
			c0.656,0.745,1.679,1.244,3.118,1.524c0.642,0.121,1.33,0.2,2.045,0.239c1.037,0.038,1.917,0.032,2.768-0.055l0.105-0.022
			l0.561-0.116l0.069,0.567l0.02,0.07v0.03l0.04,0.364c0.213,2.146,3.421,2.488,5.274,2.342c0.681-0.047,1.268-0.125,1.781-0.219
			c0.786-0.153,1.465-0.365,2.018-0.643l0.957-0.469l0.225,0.576c0.116,0.27,0.301,0.514,0.537,0.692
			c1.266,0.946,2.791,0.855,4.28,0.729l0.002-0.016l0.134,0.01h0.085l0,0l1.187-0.079l-0.463,0.864
			c-1.031,2.021-1.116,4.242-0.246,6.104c0.612,1.367,0.84,1.674,1.987,2.924c1.038,1.066,2.479,2.05,3.736,2.548
			c0.815,0.326,2.605,1.043,3.55,1.292c0,0-2.169,2.255-2.798,3.693c-0.332,0.753-0.411,1.614-0.411,2.464
			c0,0.521,0.052,1.043,0.15,1.563c0.509,2.652,2.301,5.271,4.793,7.016c0.469,0.326,0.972,0.65,1.597,0.994l0.692,0.389
			l-0.615,0.504c-1.555,1.307-2.437,3.178-2.488,5.299v0.152c0,2.195,0.915,4.26,2.512,5.717c0.555,0.502,1.154,0.971,1.824,1.398
			l0.496,0.318l-0.364,0.473c-0.73,0.951-1.034,2.029-1.034,3.129c0,2.424,1.458,4.965,2.986,6.445l0.973,0.832l-0.408,0.455
			l-0.171,0.195c-0.869,1.088-1.308,2.279-1.308,3.521c0,1.346,0.51,2.748,1.521,4.137l0.732,0.639
			c0.142,0.111,0.212,0.17,0.212,0.42c0,0.258-0.081,0.684-0.217,1.547l-0.129,0.77l-0.008,0.242c0,1.6,0.926,3.078,2.831,4.494
			l0.544,0.342c1.761,1.051,2.344,1.477,2.344,2.006l-0.007,0.047l-0.013,0.254c-0.042,1.33,0.456,3.471,1.979,3.664
			c0.404,0.045,0.758-0.064,1.081-0.311c0.878-0.701,1.402-2.502,1.535-3.984c0.067-0.697,0.202-2.15-0.117-2.891
			c0,0,1.629-1.568,1.809-1.863c0.071-0.227,0.115-0.469,0.115-0.711c0-1.266-0.952-2.674-1.884-3.598c0,0-0.101-0.35,0.869-1.08
			c0.602-0.514,1.573-1.729,1.743-2.047c0.643-1.283,0.473-2.729,0.212-3.715c-0.096-0.35-0.83-2.324-1.065-2.613
			c-0.247-0.527,0.065-0.91,0.065-0.91c2.857-1.346,3.383-4.607,2.425-7.146l-0.163-0.439l0.817-0.443
			c1.562-0.842,4.268-2.699,4.897-5.699c0.766-3.609-2.396-7-3.378-7.947c0,0-0.14-0.707,0.291-0.924
			c0.429-0.205,2.317-1.65,2.667-1.955c0.825-0.705,1.548-1.545,2.17-2.502c1.45-2.219,2.079-4.291,1.882-6.174
			c-0.188-1.788-0.792-3.352-1.709-4.408l-1.452-1.57l0.761-0.296l2.37-0.856l0.134-0.052c2.034-0.952,4.283-2.209,5.528-4.373
			c0.617-1.072,0.918-2.306,0.894-3.688c-0.023-1.215-0.117-2.74-0.691-3.752l-0.503-0.895l1.151,0.086
			c1.35,0.109,3.007-0.344,3.476-1.568l0.221-0.584l0.878,0.475c1.166,0.63,2.69,0.886,4.535,0.745
			c1.087-0.086,2.206-0.173,3.203-0.545c0.48-0.181,0.819-0.419,1.032-0.731c0.078-0.139,0.354-0.629,0.459-1.257
			c0.106-0.642,0.691-0.562,0.691-0.562h0.013c2.791,0.28,5.896,0.342,7.546-1.314c0.458-0.467,0.877-1.25,0.947-1.797
			c0.067-0.552,0.133-0.559,3.545-0.566l0.602-0.008c2.532-0.125,5.075-0.45,5.98-2.836l0.289-1.393c0,0,1.342,0.304,2.464-0.157
			c0.785-0.379,1.403-0.917,1.819-1.577c0.354-0.547,0.654-1.345,0.654-2.062C87.028,26.69,86.997,26.458,86.923,26.249z
			 M54.838,14.375c3.974,1.779,7.932,3.615,11.92,5.357c0.218,0.092,0.543,0.211,0.886,0.348l-0.008-0.264
			c0.008,0.086,0.013,0.179,0.021,0.274c0.964,0.406,1.994,1.01,0.733,1.872c-0.758,0.514-1.822,0.388-2.693,0.421
			c-0.288,0.008-0.569,0-0.843-0.018c-2.197-0.139-3.982-1.093-5.959-2.107c-2.032-1.025-4.063-2.036-6.096-3.054
			c-0.495-0.251-0.986-0.498-1.479-0.746l2.228-0.747l7.877,4.004c0.302,0.154,0.898,0.279,1.216,0.164
			c0.625-0.241-0.09-0.966-0.436-1.135c-0.206-0.109-0.432-0.132-0.649-0.256c-0.673-0.374-1.392-0.684-2.084-1.036
			c-1.51-0.761-3.048-1.493-4.579-2.218c-0.143-0.075-0.862-0.558-1.022-0.504L54.838,14.375z M30.72,34.068
			c-0.169-0.2-0.299-0.42-0.33-0.621c-0.171-0.951,1.26-1.176,1.912-1.182c1.285,0,2.15,1.119,3.007,1.912
			c1.185,1.095,2.378,2.17,3.561,3.258c0.299,0.264,0.521,0.527,0.882,0.8c-2.484-0.699-6.107-0.483-6.107-0.483L30.72,34.068z
			 M31.751,37.941c0.039,0.053-2.333,0.264-3.193,0.686c-0.263-0.633-0.576-1.371-0.576-1.371c-0.215-0.67-0.761-1.695-0.371-2.387
			c0.279-0.497,0.894-0.553,1.402-0.475c0.226,0.041,0.395,0.11,0.53,0.21c0.255,0.194,0.391,0.483,0.598,0.817
			C30.662,36.27,31.23,37.086,31.751,37.941z M31.307,27.093c0.133-0.093,2.947-1.816,2.816-1.958
			c0.843,0.91,1.624,1.897,2.546,2.738c0.553,0.483,1.372,1.041,1.38,1.854c0.012,0.819-0.765,1.255-1.509,1.167
			C34.125,30.626,32.733,28.819,31.307,27.093z M35.071,24.146l-0.167-0.208c0.52-1.036,0.94-2.697,3.098-2.697
			c0.269,0.194,0.778,0.652,1.004,0.848c1.453,1.275,2.903,2.547,4.312,3.856c0.804,0.737,3.386,2.915,1.526,3.887
			c-0.952,0.489-2.895,0.217-3.707-0.521L35.071,24.146z M39.903,21.031c1.206-0.272,2.95-2.069,2.95-2.069l1,0.707
			c1.529,1.068,3.075,2.114,4.599,3.18c1.173,0.816,3.952,2.061,3.44,3.874c-0.665,2.355-4.882,0.342-5.92-0.537
			C43.942,24.469,41.924,22.739,39.903,21.031z M43.729,18.004c-0.377-0.318,0.26-1.003,0.543-1.142
			c0.499-0.257,1.282,0.124,1.738,0.388l9.411,5.482l0.507,0.154l0.555-0.18l0.055-0.363l-0.342-0.342l-8.47-4.813l1.663-0.1
			c2.873,1.592,5.772,3.139,8.624,4.78c0.819,0.48,2.22,1.274,1.313,2.372c-1.076,1.321-3.76,1.136-5.149,0.589l-1-0.396
			L43.729,18.004z M28.831,25.071c0.408-0.13,0.914-0.261,1.271-0.44l0.759-0.413l1.021-0.722l0.879-0.919l0.667-0.747l0.774-1.009
			l0.575-1.019c-0.327-1.087-0.362-2.114-0.237-3.147c0.109-0.755-0.022-1.455,0.241-2.164c0.16-0.418,0.224-0.878,0.533-1.298
			c1.85-2.488,4.952-3.328,7.906-2.813c1.024,0.169,2.046,0.442,3.038,0.751c1.589,0.506,3.195,1.03,4.754,1.604
			c0.897,0.342,1.785,0.724,2.612,1.204c0.234,0.134-1.524,1.166-1.676,1.222c-0.842,0.302-1.75,0.475-2.652,0.49
			c-1.594,0.032-3.154-0.289-4.719-0.515c-0.679-0.095-1.715-0.363-2.314,0.117c-0.568,0.46-0.563,1.516-0.92,2.147
			c-0.552,0.971-1.423,1.639-2.462,2.044c-1.032,0.39-2.49,0.257-3.357,0.973c-0.533,0.441-0.925,1.336-1.373,1.88
			c-0.509,0.622-1.073,1.204-1.688,1.726c-0.621,0.523-1.302,0.966-2.032,1.323c-0.514,0.24-2.77,0.636-2.349,1.617
			c0.171,0.373,0.855,0.396,1.17,0.474c0.467,0.11,0.769,0.272,1.125,0.59c0.523,0.465,1.266,1.127,1.332,1.868
			c0.094,0.915-0.964,1.398-1.714,1.211c-0.775-0.195-1.531-0.714-2.098-1.251c-0.655-0.614-0.795-1.851-0.841-2.691
			c-0.032-0.467,0.016-1.019,0.257-1.439C27.664,25.119,28.216,25.277,28.831,25.071z M17.604,11.147
			c0.066-3.048,2.78-5.48,6.062-5.417c3.269,0.061,5.888,2.604,5.831,5.653c-0.063,3.047-2.784,5.479-6.053,5.417
			C20.168,16.731,17.546,14.196,17.604,11.147z M26.043,18.472l-0.286,31.965l-3.309-0.577c0,0-0.618-29.785-0.618-31.388
			C23.432,19.062,26.043,18.472,26.043,18.472z M-3.05,12.734c1.562-0.574,3.161-1.098,4.752-1.604
			c0.985-0.309,2.007-0.583,3.033-0.751c2.959-0.515,6.061,0.325,7.911,2.813c0.312,0.42,0.369,0.88,0.53,1.298
			c0.268,0.709,0.126,1.408,0.244,2.164c0.122,1.033,0.093,2.06-0.236,3.147l0.568,1.019l0.781,1.009l0.668,0.747l0.872,0.919
			l1.021,0.722l0.766,0.413c0.358,0.179,0.859,0.311,1.264,0.44c0.619,0.206,1.166,0.048,1.521,0.653
			c0.236,0.42,0.288,0.966,0.257,1.439c-0.047,0.834-0.184,2.078-0.838,2.691c-0.568,0.537-1.331,1.057-2.099,1.251
			c-0.757,0.187-1.807-0.296-1.721-1.211c0.078-0.74,0.812-1.402,1.332-1.868c0.354-0.318,0.658-0.48,1.124-0.59
			c0.327-0.078,1.006-0.101,1.167-0.474c0.422-0.981-1.832-1.377-2.341-1.626c-0.727-0.348-1.414-0.79-2.034-1.313
			c-0.617-0.522-1.178-1.104-1.688-1.726c-0.445-0.544-0.831-1.439-1.368-1.88c-0.873-0.716-2.329-0.583-3.365-0.973
			c-1.038-0.405-1.9-1.073-2.461-2.044c-0.354-0.631-0.345-1.688-0.917-2.147c-0.603-0.479-1.631-0.211-2.311-0.117
			c-1.562,0.221-3.129,0.547-4.726,0.515c-0.895-0.015-1.802-0.188-2.647-0.49c-0.149-0.056-1.905-1.088-1.682-1.222
			C-4.835,13.458-3.954,13.076-3.05,12.734z M-7.464,22.733l9.409-5.482c0.46-0.265,1.244-0.646,1.742-0.388
			c0.284,0.139,0.916,0.824,0.539,1.142l-9.441,6.43L-6.21,24.83c-1.401,0.547-4.075,0.732-5.153-0.589
			c-0.91-1.097,0.485-1.891,1.313-2.372c2.843-1.641,5.753-3.188,8.62-4.78l1.664,0.1l-8.471,4.813
			C-8.917,22.671-8.137,23.127-7.464,22.733z M-0.497,22.849c1.531-1.066,3.07-2.112,4.599-3.18l1.006-0.707
			c0,0,1.747,1.797,2.943,2.069c-2.021,1.708-4.034,3.438-6.06,5.155c-1.043,0.878-5.256,2.892-5.929,0.537
			C-4.443,24.909-1.663,23.665-0.497,22.849z M4.643,25.945c1.412-1.309,2.852-2.581,4.311-3.856
			c0.226-0.196,0.734-0.654,0.999-0.848c2.164,0,2.578,1.661,3.099,2.697l-0.164,0.208l-6.069,5.166
			c-0.804,0.738-2.75,1.01-3.706,0.521C1.262,28.86,3.841,26.682,4.643,25.945z M11.286,27.873c0.929-0.841,1.714-1.828,2.556-2.738
			c-0.134,0.142,2.675,1.865,2.813,1.958c-1.426,1.726-2.826,3.533-5.236,3.802c-0.738,0.087-1.521-0.348-1.508-1.167
			C9.926,28.914,10.738,28.356,11.286,27.873z M15.664,32.266c0.649,0.006,2.081,0.23,1.909,1.182
			c-0.04,0.201-0.163,0.421-0.334,0.621l-2.924,3.684c0,0-3.622-0.216-6.106,0.483c0.364-0.272,0.585-0.536,0.877-0.8
			c1.19-1.082,2.38-2.163,3.561-3.252C13.51,33.385,14.37,32.266,15.664,32.266z M17.821,35.414c0.198-0.336,0.342-0.615,0.595-0.81
			c0.131-0.1,0.302-0.169,0.534-0.21c0.51-0.078,1.12-0.022,1.402,0.475c0.384,0.691-0.155,1.717-0.378,2.387
			c0,0-0.306,0.738-0.575,1.371c-0.859-0.422-3.227-0.633-3.189-0.686C16.732,37.086,17.3,36.27,17.821,35.414z M-18.798,19.732
			c3.983-1.742,7.949-3.578,11.923-5.357l0.96,0.365l-8.627,4.205c-0.266,0.358-0.626,0.862,0,0.983
			c0.311,0.052,0.797-0.075,1.073-0.211l7.88-4.004l2.227,0.747c-0.489,0.248-0.988,0.495-1.479,0.746
			c-2.027,1.018-4.068,2.029-6.096,3.054c-1.979,1.014-3.76,1.968-5.953,2.107c-0.276,0.018-0.56,0.026-0.846,0.018
			c-0.872-0.033-1.933,0.093-2.688-0.421C-22.144,20.79-19.656,20.104-18.798,19.732z M-34.878,29.661
			c-0.879-0.243-3.161-1.33-2.149-2.591c0.667-0.836,2.043-1.073,3-1.404c2.133-0.742,4.268-1.48,6.394-2.227
			c1.078-0.373,2.163-0.754,3.247-1.126c0.12-0.04,0.728-0.257,1.255-0.337c0.541-0.067,0.994,0.017,0.735,0.631
			c-0.171,0.399-1.243,0.594-1.608,0.716c-2.041,0.724-4.075,1.471-6.083,2.262c-0.641,0.248-1.375,0.396-1.964,0.721
			c-0.732,0.405-0.468,1.434,0.605,1.408l10.85-4.246c0.954-0.021,1.89,0.032,2.77,0.335c0.298,0.095,0.037,0.515-0.704,0.81
			c-2.777,1.109-9.089,4.042-11.201,4.633C-31.438,29.722-33.122,30.144-34.878,29.661z M-22.866,33.369
			c-4.404,1.461-14.266-0.03-5.502-3.484c4.749-1.865,9.422-3.925,14.125-5.885c0.148,0.031,1.138,0.53,0.723,0.741
			c-0.384,0.184-0.774,0.388-1.158,0.573c-1.816,0.909-3.635,1.819-5.447,2.728c-0.867,0.431-1.77,0.803-2.647,1.212
			c-0.433,0.205-1.819,0.655-1.979,1.184c-0.232,0.745,1.325,0.577,1.785,0.498c0.438-0.085,0.973-0.521,1.359-0.724
			c1.951-1.026,3.897-2.062,5.844-3.086c0.79-0.422,1.579-0.82,2.375-1.246c0.76-0.388,1.815-0.261,2.317,0.636
			c0.357,0.632-0.397,0.825-0.913,1.104c-0.458,0.251-0.93,0.477-1.392,0.718c-2.999,1.555-5.96,3.195-8.941,4.79L-22.866,33.369z
			 M-19.786,36.9c-0.907-0.273-3.421-0.989-2.253-2.374l0.495-0.573l15.058-7.899c0,0,0,1.64,1.053,2.696
			c1.062,1.066,3.086,0.367,3.086,0.367l-11.692,7.494C-15.72,37.663-17.979,37.421-19.786,36.9z M-5.62,39.318l-0.454,0.24
			c-1.459,0.793-3.36,0.994-4.983,0.684c-0.593-0.109-1.222-0.309-1.584-0.84c-1.015-1.545,1.1-2.401,2.096-3.078
			c2.118-1.432,4.246-2.861,6.356-4.301c1.174-0.814,2.415-1.913,3.709-2.527c1.209,1.205,2.541,1.767,5.069,1.64L-5.62,39.318z
			 M-2.709,40.087c-0.304-1.159,0.983-2.114,1.766-2.744c1.873-1.502,3.828-2.907,5.703-4.416c1.101-0.881,2.193-1.806,3.344-2.606
			c-0.187,0.126,0.901,3.197,5.36,1.345c-0.963,0.857-1.393,1.277-2.089,1.914c-1.362,1.25-2.728,2.51-4.1,3.763
			c-0.773,0.724-2.2,1.827-3.565,2.427C1.435,40.764-2.094,42.418-2.709,40.087z M26.968,116.077
			c-0.158,0.486-0.392,0.994-0.781,1.344c-0.184-0.094-0.307-0.258-0.347-0.467c-0.084-0.414,0.013-0.826,0.031-1.23
			c0.048-0.887-0.136-1.43-0.812-2.027c-1.425-1.268-3.25-1.922-4.471-3.438c-0.444-0.531-0.852-2.643-0.338-3.109
			c0.354-0.266,2.355,0.566,2.444,0.992c0.192,1.629,1.217,2.48,2.575,3.174c1.162,0.59,1.842,1.635,1.924,2.924
			C27.234,114.853,27.155,115.493,26.968,116.077z M29.013,109.86c-1.462-0.119-4.632-2.869-6.026-3.543
			c-1.445-0.732-2.79-1.416-3.931-2.521c-0.299-0.279-0.489-0.66-0.691-0.992c-0.573-1.146-0.438-2.824,0.136-3.797l0.512-0.652
			l0.564-0.498l0.645,0.615c0.288,0.381,0.836,0.768,1.135,1.15l0.008,0.016c-0.439,0.588-0.777,1.389-0.407,2.037
			C22.524,104.147,28.872,106.573,29.013,109.86z M23.381,99.239l1.392,0.684l-0.269,3.609l-0.839-0.629L23.381,99.239z
			 M29.813,102.366c-0.681,1.354-2.293,1.508-3.669,2.084c0.59-1.674,1.077-3.443,0-5.016c-0.392-0.521-3.783-2.322-4.479-2.76
			c-1.092-0.674-2.243-1.082-3.183-1.99c-0.983-0.957-1.723-2.051-2.101-3.135c-0.663-2.027-0.107-4.842,0.994-4.584
			c0.804,0.164,2.255,0.84,3.152,1.234c-0.995,1.859,0.02,4.127,1.703,5.344c1.293,0.961,2.849,1.508,4.291,2.283
			C29.124,97.112,31.272,99.364,29.813,102.366z M22.028,89.126l0.135,2.348C22.163,91.474,20.213,89.802,22.028,89.126z
			 M23.484,88.735l1.65,0.592l-0.246,4.641l-1.045-0.393L23.484,88.735z M31.311,93.036c-0.89,1.516-3.144,1.938-4.774,1.813
			c0.024-1.072,0.079-3.605,0.079-3.605c3.787-0.631-1.358-3.174-0.21-2.496c-3.979-2.332-8.552-2.801-11.869-5.869
			c-1.485-1.342-2.345-3.936-1.95-5.709c0.221-1.215,1.674-3.355,3.14-3.648l3.646,1.762c-0.517,0.645-1.445,1.707-1.663,2.457
			c-0.321,0.93-0.491,2.096-0.005,2.809c2.05,3.236,6.372,3.695,9.821,4.977c1.605,0.594,3.14,1.713,3.768,3.129
			C31.898,90.017,32.083,91.696,31.311,93.036z M21.503,75.913l0.249,6.447C17.094,79.78,19.136,77.112,21.503,75.913z
			 M22.774,76.286l2.465,0.375l-0.486,6.646l-1.548-0.496L22.774,76.286z M36.881,79.665c0.145,0.932,0.058,2.244-0.33,3.133
			l-0.524,1.025c-1.189,1.525-2.107,1.834-3.986,2.879c0.102-0.049-4.035-2.195-4.937-2.781c0.992,0.646,3.104-2.029,3.356-2.703
			c0.66-1.748,0.023-3.213-1.501-4.191c-5.002-3.367-11.344-3.861-16.282-7.324c-4.207-2.934-6.256-8.886-1.46-12.359
			c0.352-0.235,0.61-0.462,1.014-0.736l6.485,0.919c-1.283,0.661-2.726,2.069-3.208,3.447c-0.54,1.507,0.242,3.351,1.179,4.558
			c1.266,1.613,3.222,2.674,5.132,3.373c1.71,0.631,3.51,1.055,5.15,1.889c2.229,1.117,4.393,2.084,6.311,3.719
			C34.832,75.829,36.559,77.548,36.881,79.665z M26.616,83.06l0.159-5.822c1.334,0.684,2.473,1.725,2.383,2.9
			C29.084,81.173,28.153,82.503,26.616,83.06z M20.707,58.156l0.336,8.882C13.837,62.847,17.854,59.697,20.707,58.156z
			 M22.281,57.931l3.113,0.81l-0.096,9.851l-2.847-1.268L22.281,57.931z M39.239,59.101c2.071,2.414,1.465,5.658-0.013,8.15
			c-0.668,1.123-1.484,2.156-2.496,2.986c-0.442,0.369-3.23,2.561-3.705,2.311c-1.398-0.723-3.98-2.424-5.834-3.121
			c2.518-0.969,5.48-2.617,6.254-5.414c1.45-5.305-7.535-6.75-10.947-7.6c-3.678-0.9-7.53-0.831-11.239-1.568
			c-3.343-0.67-7.807-2.179-9.16-5.684c-0.431-1.128-0.356-2.304,0.028-3.426c1.233-3.58,4.295-5.608,7.885-6.355
			c2.424-0.459,5.045-0.507,7.3-0.04c1.309,0.219,2.961,0.481,3.448,1.523c0.58,1.332-1.9,1.938-3.214,2.24
			c-2.785,0.575-5.602,0.934-8.406,0.451l-0.214-0.039l-0.292,0.186c-0.155,0.104-0.337,0.204-0.531,0.43
			c-4.277,5.141,7.673,5.908,9.993,6.344C25.767,51.92,33.834,52.822,39.239,59.101z M27.026,67.978l0.249-8.802
			c2.201,0.856,4.541,2.369,4.336,3.926C31.412,64.556,29.761,67.216,27.026,67.978z M20.679,49.533c0,0-13.993-1.064-11.244-4.619
			c2.823,0.438,5.938,0.538,11.166-1.235L20.679,49.533z M27.614,50.662V44.83c0,0,5.62,1.283,10.376-0.178
			C44.073,50.979,27.614,50.662,27.614,50.662z M46.951,48.687c-0.831,2.381-3.204,4.058-5.385,5.125
			c-0.575,0.271-2.382,1.326-3.467,1.392c-1.155-1.149-3.817-2.367-6.092-3.135c-0.528-0.349,1.816-0.545,2.798-0.568
			c1.754-0.053,3.687-0.479,5.09-1.678c1.558-1.338,1.761-3.835,0.373-5.424c-0.116-0.129-1.165-1.332-1.369-1.295
			c-3.081,0.639-6.16,1.001-9.271,0.429c-1.241-0.267-3.363-1.145-2.312-2.737c0.625-0.951,2.367-1.471,3.452-1.563
			c4.514-0.366,9.174-0.359,13.097,2.224C46.352,43.096,48.051,45.539,46.951,48.687z M50.662,40.087
			c-0.604,2.331-4.139,0.677-6.416-0.317c-1.358-0.6-2.793-1.703-3.565-2.427c-1.366-1.253-2.73-2.513-4.102-3.763
			c-0.696-0.637-1.12-1.057-2.089-1.914c5.008,1.852,5.557-1.219,5.366-1.345c1.146,0.8,2.246,1.725,3.339,2.606
			c1.88,1.509,3.833,2.914,5.711,4.416C49.685,37.973,50.976,38.928,50.662,40.087z M60.596,39.402
			c-0.349,0.531-0.983,0.73-1.57,0.84c-1.639,0.311-3.53,0.117-4.995-0.684l-0.448-0.24l-10.21-8.183
			c2.524,0.841,3.858-0.435,5.063-1.64c1.299,0.615,2.542,1.713,3.715,2.527c2.112,1.439,4.24,2.869,6.348,4.301
			C59.497,37.001,61.619,37.857,60.596,39.402z M67.749,36.9c-1.807,0.521-4.074,0.763-5.75-0.289L50.31,29.117
			c0,0,2.018,0.699,3.08-0.367c1.061-1.056,1.061-2.696,1.061-2.696l15.056,7.899L70,34.526C71.17,35.911,68.652,36.627,67.749,36.9
			z M70.828,33.369l-0.552-0.24c-2.981-1.595-5.944-3.234-8.946-4.79c-0.458-0.241-0.928-0.466-1.392-0.718
			c-0.513-0.279-1.268-0.472-0.912-1.104c0.509-0.897,1.557-1.024,2.319-0.636c0.793,0.42,1.583,0.824,2.373,1.246
			c1.947,1.024,3.899,2.06,5.851,3.086c0.384,0.202,0.92,0.638,1.354,0.724c0.463,0.079,2.018,0.247,1.792-0.498
			c-0.167-0.529-1.546-0.979-1.986-1.184c-0.879-0.409-1.78-0.782-2.641-1.218c-1.819-0.903-3.634-1.813-5.446-2.722
			c-0.316-0.156-0.863-0.257-1.072-0.551c-0.239-0.328,0.244-0.924,0.628-0.763c4.706,1.96,9.376,4.021,14.125,5.879
			C85.087,33.339,75.233,34.83,70.828,33.369z M82.838,29.661c-1.757,0.483-3.736,0.061-5.443-0.413
			c-2.686-0.744-5.28-1.828-7.807-3c-0.927-0.444-1.85-0.897-2.771-1.355c-0.315-0.153-0.64-0.589-0.548-0.956
			c0.199-0.762,1.74-0.706,2.286-0.468L79.4,27.715c1.078,0.025,1.341-1.003,0.606-1.408c-0.59-0.325-1.325-0.473-1.967-0.721
			c-1.237-0.488-2.478-0.965-3.728-1.422c-0.729-0.264-1.477-0.473-2.22-0.724c-0.437-0.147-1.527-0.35-1.734-0.832
			c-0.261-0.614,0.188-0.698,0.735-0.631c0.52,0.08,1.131,0.297,1.256,0.337c1.081,0.372,2.159,0.753,3.237,1.126
			c2.128,0.746,4.263,1.485,6.4,2.227c0.952,0.331,2.332,0.567,3,1.404C85.994,28.331,83.713,29.418,82.838,29.661z"/>
	</g>
</g>
<g>
	<path fill="#FFFFFF" d="M119.848,38.902l-2.323-5.016h-8.492l-2.358,5.016h-1.785l7.824-16.272h1.344l7.535,16.272H119.848z
		 M113.385,24.945l-3.622,7.477h7.084L113.385,24.945z"/>
	<path fill="#FFFFFF" d="M130.186,24.094v14.809h-1.584V24.094h-6.24V22.63h14.04v1.464H130.186z"/>
	<path fill="#FFFFFF" d="M138.73,38.902V22.63h1.584v14.808h10.272v1.465H138.73z"/>
	<path fill="#FFFFFF" d="M166.215,38.902l-2.323-5.016H155.4l-2.358,5.016h-1.785l7.824-16.272h1.344l7.535,16.272H166.215z
		 M159.752,24.945l-3.622,7.477h7.084L159.752,24.945z"/>
	<path fill="#FFFFFF" d="M183.145,38.902l-11.512-13.789v13.789h-1.584V22.63h1.536c1.377,1.727,3.307,4.039,5.788,6.933
		c2.75,3.217,4.668,5.49,5.756,6.82V22.63h1.584v16.272H183.145z"/>
	<path fill="#FFFFFF" d="M194.841,24.094v14.809h-1.584V24.094h-6.24V22.63h14.04v1.464H194.841z"/>
	<path fill="#FFFFFF" d="M203.385,38.902V22.63h1.584v16.272H203.385z"/>
	<path fill="#FFFFFF" d="M223.185,26.566c-1.248-1.76-3.184-2.64-5.809-2.64c-2.256,0-4.047,0.62-5.375,1.86
		c-1.328,1.24-1.992,2.908-1.992,5.004c0,2.08,0.632,3.736,1.896,4.968c1.265,1.232,3,1.848,5.208,1.848
		c2.528,0,4.488-0.895,5.881-2.688l1.319,0.84c-1.728,2.209-4.12,3.313-7.176,3.313c-2.673,0-4.792-0.74-6.36-2.221
		s-2.352-3.467-2.352-5.963c0-2.576,0.808-4.624,2.424-6.145c1.615-1.52,3.792-2.28,6.527-2.28c3.184,0,5.568,1.088,7.152,3.264
		L223.185,26.566z"/>
	<path fill="#FFFFFF" d="M250.304,37.967c-1.12,0.623-2.544,0.936-4.271,0.936h-7.968V22.63h8.279c1.552,0,2.832,0.328,3.84,0.984
		c1.185,0.768,1.776,1.896,1.776,3.384c0,1.44-0.776,2.552-2.328,3.335c1.904,0.672,2.856,1.993,2.856,3.959
		C252.489,35.926,251.76,37.15,250.304,37.967z M246.296,24.094h-6.647v5.616h6.624c1.167,0,2.111-0.216,2.832-0.648
		c0.848-0.512,1.271-1.24,1.271-2.184c0-0.736-0.248-1.328-0.744-1.776C248.88,24.43,247.768,24.094,246.296,24.094z M246.21,31.174
		h-6.562v6.263h6.657c1.293,0,2.347-0.23,3.161-0.695c0.958-0.561,1.438-1.369,1.438-2.424c0-0.48-0.089-0.904-0.264-1.273
		C250.05,31.798,248.574,31.174,246.21,31.174z"/>
	<path fill="#FFFFFF" d="M255.632,38.902V22.63h1.584v16.272H255.632z"/>
	<path fill="#FFFFFF" d="M275.528,36.838c-1.584,1.488-3.736,2.232-6.456,2.232c-2.735,0-4.884-0.736-6.443-2.209
		c-1.561-1.471-2.341-3.504-2.341-6.095c0-2.544,0.792-4.536,2.377-5.976c1.552-1.392,3.688-2.088,6.407-2.088
		s4.864,0.696,6.433,2.088c1.6,1.44,2.399,3.432,2.399,5.976C277.904,33.326,277.112,35.35,275.528,36.838z M274.412,25.882
		c-1.271-1.144-3.052-1.716-5.34-1.716c-2.271,0-4.04,0.576-5.304,1.728c-1.264,1.152-1.896,2.776-1.896,4.872
		c0,2.111,0.636,3.779,1.907,5.003c1.272,1.225,3.036,1.836,5.292,1.836c2.288,0,4.068-0.604,5.34-1.813
		c1.272-1.207,1.908-2.883,1.908-5.027C276.32,28.654,275.684,27.026,274.412,25.882z"/>
	<path fill="#FFFFFF" d="M297.344,38.902V25.798l-6.793,13.104h-1.224l-6.792-13.104v13.104h-1.584V22.63h1.672l7.303,14.089
		l7.329-14.089h1.673v16.272H297.344z"/>
	<path fill="#FFFFFF" d="M302.576,38.902V22.63h12.744v1.464h-11.16v5.616h9.888v1.464h-9.888v6.263h11.28v1.465H302.576z"/>
	<path fill="#FFFFFF" d="M330.512,36.861c-1.617,1.361-3.825,2.041-6.624,2.041h-5.809V22.63h6.72c2.721,0,4.792,0.736,6.217,2.208
		c1.376,1.408,2.063,3.392,2.063,5.952C333.08,33.414,332.223,35.438,330.512,36.861z M329.839,25.81
		c-1.104-1.144-2.792-1.716-5.063-1.716h-5.112v13.344h4.296c2.384,0,4.236-0.559,5.557-1.68c1.319-1.119,1.979-2.775,1.979-4.968
		C331.496,28.614,330.944,26.954,329.839,25.81z"/>
	<path fill="#FFFFFF" d="M336.367,38.902V22.63h1.584v16.272H336.367z"/>
	<path fill="#FFFFFF" d="M356.167,26.566c-1.248-1.76-3.185-2.64-5.808-2.64c-2.257,0-4.049,0.62-5.376,1.86
		c-1.329,1.24-1.992,2.908-1.992,5.004c0,2.08,0.632,3.736,1.896,4.968s3,1.848,5.208,1.848c2.528,0,4.488-0.895,5.88-2.688
		l1.32,0.84c-1.728,2.209-4.12,3.313-7.176,3.313c-2.673,0-4.792-0.74-6.36-2.221s-2.352-3.467-2.352-5.963
		c0-2.576,0.808-4.624,2.424-6.145c1.616-1.52,3.792-2.28,6.528-2.28c3.184,0,5.567,1.088,7.151,3.264L356.167,26.566z"/>
	<path fill="#FFFFFF" d="M374.172,38.902l-2.322-5.016h-8.492L361,38.902h-1.784l7.823-16.272h1.345l7.535,16.272H374.172z
		 M367.709,24.945l-3.621,7.477h7.084L367.709,24.945z"/>
	<path fill="#FFFFFF" d="M378.006,38.902V22.63h1.584v14.808h10.272v1.465H378.006z"/>
</g>
<g>
</g>
<g>
</g>
<g>
</g>
<g>
</g>
<g>
</g>
<g>
</g>
<g>
</g>
<g>
</g>
<g>
</g>
<g>
</g>
<g>
</g>
<g>
</g>
<g>
</g>
<g>
</g>
<g>
</g>
</svg>
